<?xml version="1.0" encoding="UTF-8" standalone="no"?>
<!-- Generator: Adobe Illustrator 18.0.0, SVG Export Plug-In . SVG Version: 6.00 Build 0)  -->

<svg
   xmlns:dc="http://purl.org/dc/elements/1.1/"
   xmlns:cc="http://creativecommons.org/ns#"
   xmlns:rdf="http://www.w3.org/1999/02/22-rdf-syntax-ns#"
   xmlns:svg="http://www.w3.org/2000/svg"
   xmlns="http://www.w3.org/2000/svg"
   xmlns:sodipodi="http://sodipodi.sourceforge.net/DTD/sodipodi-0.dtd"
   xmlns:inkscape="http://www.inkscape.org/namespaces/inkscape"
   version="1.1"
   id="Capa_1"
   x="0px"
   y="0px"
   viewBox="0 0 433.511 433.511"
   style="enable-background:new 0 0 433.511 433.511;"
   xml:space="preserve"
   inkscape:version="0.91 r13725"
   sodipodi:docname="cannon_left.svg"><metadata
     id="metadata3532"><rdf:RDF><cc:Work
         rdf:about=""><dc:format>image/svg+xml</dc:format><dc:type
           rdf:resource="http://purl.org/dc/dcmitype/StillImage" /><dc:title></dc:title></cc:Work></rdf:RDF></metadata><defs
     id="defs3530" /><sodipodi:namedview
     pagecolor="#ffffff"
     bordercolor="#666666"
     borderopacity="1"
     objecttolerance="10"
     gridtolerance="10"
     guidetolerance="10"
     inkscape:pageopacity="0"
     inkscape:pageshadow="2"
     inkscape:window-width="1366"
     inkscape:window-height="719"
     id="namedview3528"
     showgrid="false"
     inkscape:zoom="1.2479499"
     inkscape:cx="216.75549"
     inkscape:cy="216.75549"
     inkscape:window-x="0"
     inkscape:window-y="25"
     inkscape:window-maximized="1"
     inkscape:current-layer="Capa_1" /><g
     id="g3463"
     transform="matrix(-1,0,0,1,433.5096,0)"><g
       id="XMLID_17_"><g
         id="g3466"><path
           style="fill:#b3b3b3"
           d="m 207.77,130.619 7.13,21.85 -7.07,0 c -1.47,0 -2.9,0.43 -4.13,1.24 l -58.88,38.92 -13.9,-42.59 76.85,-19.42 z"
           id="path3468"
           inkscape:connector-curvature="0" /><path
           style="fill:#b3b3b3"
           d="m 303.36,106.479 24.75,75.82 -21.37,8.63 0,-30.96 c 0,-4.14 -3.35,-7.5 -7.5,-7.5 l -14.23,0 c -3.26,-11.25 -13.65,-19.5 -25.93,-19.5 -12.29,0 -22.67,8.25 -25.93,19.5 l -2.47,0 -8.33,-25.53 81.01,-20.46 z"
           id="path3470"
           inkscape:connector-curvature="0" /><path
           style="fill:#808080"
           d="m 25.24,231.059 c 5.51,0 10,4.48 10,9.99 0,5.51 -4.49,9.99 -10,9.99 -5.51,0 -9.99,-4.48 -9.99,-9.99 0,-5.51 4.48,-9.99 9.99,-9.99 z"
           id="path3472"
           inkscape:connector-curvature="0" /><path
           style="fill:#808080"
           d="m 116.34,153.719 15.5,47.49 -53.41,35.31 c -2.55,-3.91 -4.59,-8.14 -6.07,-12.67 -1.77,-5.4 -2.67,-11.01 -2.67,-16.66 0,-24.55 16.65,-45.9 40.48,-51.91 l 6.17,-1.56 z"
           id="path3474"
           inkscape:connector-curvature="0" /><path
           style="fill:#4d4d4d"
           d="m 431.94,144.209 c 4.56,13.95 -3.08,29 -17.03,33.56 -2.72,0.89 -5.51,1.33 -8.29,1.33 -4.13,0 -8.23,-0.98 -12.02,-2.9 -1.57,-0.8 -3.04,-1.73 -4.39,-2.79 l -83.47,33.7 0,44.4 c 30.91,3.72 54.94,30.08 54.94,61.97 0,34.43 -28.01,62.44 -62.44,62.44 -27.87,0 -51.54,-18.36 -59.54,-43.63 l -134.99,0 c -2.55,24.48 -23.3,43.63 -48.44,43.63 -26.86,0 -48.7,-21.85 -48.7,-48.7 0,-24.31 17.89,-44.51 41.19,-48.13 l 0,-18.93 c 0,-2.52 1.27,-4.87 3.37,-6.26 l 13.79,-9.11 c -1.9,-2.91 -3.58,-5.95 -5.02,-9.13 l -10.72,3.78 c 0.03,0.53 0.06,1.07 0.06,1.61 0,13.78 -11.22,24.99 -25,24.99 -13.78,0 -24.99,-11.21 -24.99,-24.99 0,-13.78 11.21,-24.99 24.99,-24.99 7.89,0 14.92,3.67 19.51,9.39 l 11.45,-4.04 c -0.99,-4.67 -1.51,-9.43 -1.51,-14.22 0,-31.43 21.31,-58.76 51.81,-66.45 l 104.39,-26.38 147.85,-37.35 c 0.46,-1.65 1.1,-3.27 1.89,-4.84 3.22,-6.34 8.71,-11.04 15.47,-13.25 6.76,-2.21 13.97,-1.65 20.31,1.57 6.34,3.22 11.04,8.71 13.25,15.47 l 22.28,68.25 z m -21.69,19.3 c 6.09,-1.99 9.42,-8.56 7.43,-14.64 L 395.4,80.609 c -0.96,-2.95 -3.02,-5.34 -5.78,-6.75 -1.66,-0.84 -3.45,-1.26 -5.25,-1.26 -1.21,0 -2.43,0.19 -3.61,0.58 -2.95,0.96 -5.35,3.01 -6.75,5.78 -1.38,2.72 -1.64,5.81 -0.72,8.72 l 22.32,68.4 c 0.96,2.94 3.02,5.34 5.78,6.74 2.77,1.41 5.91,1.65 8.86,0.69 z m -28.88,-2.71 c 0,-0.03 -0.01,-0.05 -0.02,-0.07 l -22.29,-68.25 c 0,-0.03 -0.01,-0.05 -0.02,-0.07 l -41.11,10.38 24.13,73.88 39.31,-15.87 z m -34.69,152.68 c 0,-26.16 -21.28,-47.44 -47.44,-47.44 -26.16,0 -47.44,21.28 -47.44,47.44 0,26.16 21.28,47.44 47.44,47.44 26.16,0 47.44,-21.28 47.44,-47.44 z m -18.57,-131.18 -24.75,-75.82 -81.01,20.46 8.33,25.53 2.47,0 c 3.26,-11.25 13.64,-19.5 25.93,-19.5 12.28,0 22.67,8.25 25.93,19.5 l 14.23,0 c 4.15,0 7.5,3.36 7.5,7.5 l 0,30.96 21.37,-8.63 z m -36.37,69.21 0,-84.04 -6.73,0 c -3.26,11.25 -13.65,19.5 -25.93,19.5 -12.29,0 -22.68,-8.25 -25.94,-19.5 l -23.05,0 -146.33,96.72 0,14.9 c 20.06,3.11 36.1,18.49 40.2,38.2 l 132.97,0 c -0.08,-1.26 -0.13,-2.53 -0.13,-3.81 0,-31.89 24.04,-58.25 54.94,-61.97 z m -20.67,-91.54 c 0,-6.61 -5.38,-12 -11.99,-12 -6.62,0 -12,5.39 -12,12 0,6.62 5.38,12 12,12 6.61,0 11.99,-5.38 11.99,-12 z m -56.17,-7.5 -7.13,-21.85 -76.85,19.42 13.9,42.59 58.88,-38.92 c 1.23,-0.81 2.66,-1.24 4.13,-1.24 l 7.07,0 z m -83.06,48.74 -15.5,-47.49 -6.17,1.56 c -23.83,6.01 -40.48,27.36 -40.48,51.91 0,5.65 0.9,11.26 2.67,16.66 1.48,4.53 3.52,8.76 6.07,12.67 l 53.41,-35.31 z m -41.86,126.01 c 0,-18.59 -15.12,-33.71 -33.71,-33.71 -18.58,0 -33.7,15.12 -33.7,33.71 0,18.58 15.12,33.7 33.7,33.7 18.59,0 33.71,-15.12 33.71,-33.7 z m -54.74,-86.17 c 0,-5.51 -4.49,-9.99 -10,-9.99 -5.51,0 -9.99,4.48 -9.99,9.99 0,5.51 4.48,9.99 9.99,9.99 5.51,0 10,-4.48 10,-9.99 z"
           id="path3476"
           inkscape:connector-curvature="0" /><path
           style="fill:#808080"
           d="m 417.68,148.869 c 1.99,6.08 -1.34,12.65 -7.43,14.64 -2.95,0.96 -6.09,0.72 -8.86,-0.69 -2.76,-1.4 -4.82,-3.8 -5.78,-6.74 l -22.32,-68.4 c -0.92,-2.91 -0.66,-6 0.72,-8.72 1.4,-2.77 3.8,-4.82 6.75,-5.78 1.18,-0.39 2.4,-0.58 3.61,-0.58 1.8,0 3.59,0.42 5.25,1.26 2.76,1.41 4.82,3.8 5.78,6.75 l 22.28,68.26 z"
           id="path3478"
           inkscape:connector-curvature="0" /><path
           style="fill:#b3b3b3"
           d="m 381.35,160.729 c 0.01,0.02 0.02,0.04 0.02,0.07 l -39.31,15.87 -24.13,-73.88 41.11,-10.38 c 0.01,0.02 0.02,0.04 0.02,0.07 l 22.29,68.25 z"
           id="path3480"
           inkscape:connector-curvature="0" /><path
           style="fill:#ad723d"
           d="m 299.24,266.039 c 26.16,0 47.44,21.28 47.44,47.44 0,26.16 -21.28,47.44 -47.44,47.44 -26.16,0 -47.44,-21.28 -47.44,-47.44 0,-26.16 21.28,-47.44 47.44,-47.44 z m 25,47.44 c 0,-13.78 -11.22,-24.99 -25,-24.99 -13.78,0 -24.99,11.21 -24.99,24.99 0,13.78 11.21,25 24.99,25 13.78,0 25,-11.22 25,-25 z"
           id="path3482"
           inkscape:connector-curvature="0" /><path
           style="fill:#4d4d4d"
           d="m 299.24,288.489 c 13.78,0 25,11.21 25,24.99 0,13.78 -11.22,25 -25,25 -13.78,0 -24.99,-11.22 -24.99,-25 0,-13.78 11.21,-24.99 24.99,-24.99 z m 10,24.99 c 0,-5.51 -4.49,-9.99 -10,-9.99 -5.51,0 -9.99,4.48 -9.99,9.99 0,5.51 4.48,10 9.99,10 5.51,0 10,-4.49 10,-10 z"
           id="path3484"
           inkscape:connector-curvature="0" /><path
           style="fill:#b3b3b3"
           d="m 299.24,303.489 c 5.51,0 10,4.48 10,9.99 0,5.51 -4.49,10 -10,10 -5.51,0 -9.99,-4.49 -9.99,-10 0,-5.51 4.48,-9.99 9.99,-9.99 z"
           id="path3486"
           inkscape:connector-curvature="0" /><path
           style="fill:#e0974f"
           d="m 291.74,167.469 0,84.04 c -30.9,3.72 -54.94,30.08 -54.94,61.97 0,1.28 0.05,2.55 0.13,3.81 l -132.97,0 c -4.1,-19.71 -20.14,-35.09 -40.2,-38.2 l 0,-14.9 146.33,-96.72 23.05,0 c 3.26,11.25 13.65,19.5 25.94,19.5 12.28,0 22.67,-8.25 25.93,-19.5 l 6.73,0 z"
           id="path3488"
           inkscape:connector-curvature="0" /><path
           style="fill:#808080"
           d="m 259.08,147.969 c 6.61,0 11.99,5.39 11.99,12 0,6.62 -5.38,12 -11.99,12 -6.62,0 -12,-5.38 -12,-12 0,-6.61 5.38,-12 12,-12 z"
           id="path3490"
           inkscape:connector-curvature="0" /><path
           style="fill:#ad723d"
           d="m 56.27,293.509 c 18.59,0 33.71,15.12 33.71,33.71 0,18.58 -15.12,33.7 -33.71,33.7 -18.58,0 -33.7,-15.12 -33.7,-33.7 0,-18.59 15.12,-33.71 33.7,-33.71 z m 13,33.71 c 0,-0.43 -0.02,-0.86 -0.06,-1.28 -0.05,-0.42 -0.11,-0.85 -0.19,-1.26 -0.17,-0.83 -0.42,-1.65 -0.74,-2.43 -0.33,-0.79 -0.73,-1.54 -1.2,-2.25 -0.24,-0.35 -0.49,-0.7 -0.76,-1.03 -0.27,-0.33 -0.56,-0.64 -0.86,-0.94 -0.3,-0.3 -0.62,-0.59 -0.95,-0.86 -0.32,-0.27 -0.67,-0.53 -1.02,-0.76 -0.71,-0.47 -1.46,-0.87 -2.25,-1.2 -0.78,-0.32 -1.6,-0.57 -2.43,-0.74 -0.42,-0.08 -0.84,-0.15 -1.26,-0.19 -0.85,-0.08 -1.71,-0.08 -2.56,0 -0.42,0.04 -0.84,0.11 -1.26,0.19 -0.83,0.17 -1.65,0.42 -2.43,0.74 -0.79,0.33 -1.54,0.73 -2.25,1.2 -0.35,0.23 -0.69,0.49 -1.02,0.76 -0.33,0.27 -0.65,0.56 -0.95,0.86 -2.42,2.41 -3.81,5.77 -3.81,9.19 0,0.42 0.02,0.85 0.07,1.28 0.04,0.42 0.1,0.84 0.19,1.26 0.16,0.83 0.41,1.65 0.74,2.43 0.32,0.78 0.72,1.54 1.19,2.24 0.24,0.36 0.49,0.7 0.76,1.03 0.27,0.33 0.56,0.65 0.86,0.95 0.3,0.3 0.62,0.59 0.95,0.86 0.33,0.27 0.67,0.52 1.02,0.76 0.71,0.46 1.46,0.87 2.25,1.19 0.78,0.33 1.6,0.58 2.43,0.74 0.42,0.09 0.84,0.15 1.26,0.19 0.43,0.05 0.86,0.07 1.28,0.07 0.42,0 0.85,-0.02 1.28,-0.07 0.42,-0.04 0.84,-0.1 1.26,-0.19 0.83,-0.16 1.65,-0.41 2.43,-0.74 0.79,-0.32 1.54,-0.73 2.25,-1.19 0.35,-0.24 0.7,-0.49 1.02,-0.76 0.33,-0.27 0.65,-0.56 0.95,-0.86 0.3,-0.3 0.59,-0.62 0.86,-0.95 0.27,-0.33 0.52,-0.67 0.76,-1.03 0.47,-0.7 0.87,-1.46 1.2,-2.24 0.32,-0.78 0.57,-1.6 0.74,-2.43 0.08,-0.42 0.14,-0.84 0.19,-1.26 0.04,-0.43 0.06,-0.86 0.06,-1.28 z"
           id="path3492"
           inkscape:connector-curvature="0" /><path
           style="fill:#4d4d4d"
           d="m 69.21,325.939 c 0.04,0.42 0.06,0.85 0.06,1.28 0,0.42 -0.02,0.85 -0.06,1.28 -0.05,0.42 -0.11,0.84 -0.19,1.26 -0.17,0.83 -0.42,1.65 -0.74,2.43 -0.33,0.78 -0.73,1.54 -1.2,2.24 -0.24,0.36 -0.49,0.7 -0.76,1.03 -0.27,0.33 -0.56,0.65 -0.86,0.95 -0.3,0.3 -0.62,0.59 -0.95,0.86 -0.32,0.27 -0.67,0.52 -1.02,0.76 -0.71,0.46 -1.46,0.87 -2.25,1.19 -0.78,0.33 -1.6,0.58 -2.43,0.74 -0.42,0.09 -0.84,0.15 -1.26,0.19 -0.43,0.05 -0.86,0.07 -1.28,0.07 -0.42,0 -0.85,-0.02 -1.28,-0.07 -0.42,-0.04 -0.84,-0.1 -1.26,-0.19 -0.83,-0.16 -1.65,-0.41 -2.43,-0.74 -0.79,-0.32 -1.54,-0.73 -2.25,-1.19 -0.35,-0.24 -0.69,-0.49 -1.02,-0.76 -0.33,-0.27 -0.65,-0.56 -0.95,-0.86 -0.3,-0.3 -0.59,-0.62 -0.86,-0.95 -0.27,-0.33 -0.52,-0.67 -0.76,-1.03 -0.47,-0.7 -0.87,-1.46 -1.19,-2.24 -0.33,-0.78 -0.58,-1.6 -0.74,-2.43 -0.09,-0.42 -0.15,-0.84 -0.19,-1.26 -0.05,-0.43 -0.07,-0.86 -0.07,-1.28 0,-3.42 1.39,-6.78 3.81,-9.19 0.3,-0.3 0.62,-0.59 0.95,-0.86 0.33,-0.27 0.67,-0.53 1.02,-0.76 0.71,-0.47 1.46,-0.87 2.25,-1.2 0.78,-0.32 1.6,-0.57 2.43,-0.74 0.42,-0.08 0.84,-0.15 1.26,-0.19 0.85,-0.08 1.71,-0.08 2.56,0 0.42,0.04 0.84,0.11 1.26,0.19 0.83,0.17 1.65,0.42 2.43,0.74 0.79,0.33 1.54,0.73 2.25,1.2 0.35,0.23 0.7,0.49 1.02,0.76 0.33,0.27 0.65,0.56 0.95,0.86 0.3,0.3 0.59,0.61 0.86,0.94 0.27,0.33 0.52,0.68 0.76,1.03 0.47,0.71 0.87,1.46 1.2,2.25 0.32,0.78 0.57,1.6 0.74,2.43 0.08,0.41 0.14,0.84 0.19,1.26 z"
           id="path3494"
           inkscape:connector-curvature="0" /></g><g
         id="g3496" /></g></g><g
     id="g3498" /><g
     id="g3500" /><g
     id="g3502" /><g
     id="g3504" /><g
     id="g3506" /><g
     id="g3508" /><g
     id="g3510" /><g
     id="g3512" /><g
     id="g3514" /><g
     id="g3516" /><g
     id="g3518" /><g
     id="g3520" /><g
     id="g3522" /><g
     id="g3524" /><g
     id="g3526" /></svg>