<?xml version="1.0" encoding="UTF-8" standalone="no"?>
<!-- Created with Inkscape (http://www.inkscape.org/) -->

<svg
   xmlns:dc="http://purl.org/dc/elements/1.1/"
   xmlns:cc="http://creativecommons.org/ns#"
   xmlns:rdf="http://www.w3.org/1999/02/22-rdf-syntax-ns#"
   xmlns:svg="http://www.w3.org/2000/svg"
   xmlns="http://www.w3.org/2000/svg"
   xmlns:sodipodi="http://sodipodi.sourceforge.net/DTD/sodipodi-0.dtd"
   xmlns:inkscape="http://www.inkscape.org/namespaces/inkscape"
   width="640px"
   height="480px"
   id="svg4148"
   version="1.1"
   inkscape:version="0.91 r13725"
   sodipodi:docname="explosion.svg">
  <defs
     id="defs4150">
    <inkscape:perspective
       sodipodi:type="inkscape:persp3d"
       inkscape:vp_x="0 : 240 : 1"
       inkscape:vp_y="0 : 1000 : 0"
       inkscape:vp_z="640 : 240 : 1"
       inkscape:persp3d-origin="320 : 160 : 1"
       id="perspective4156" />
    <inkscape:perspective
       id="perspective4688"
       inkscape:persp3d-origin="0.5 : 0.33333333 : 1"
       inkscape:vp_z="1 : 0.5 : 1"
       inkscape:vp_y="0 : 1000 : 0"
       inkscape:vp_x="0 : 0.5 : 1"
       sodipodi:type="inkscape:persp3d" />
  </defs>
  <sodipodi:namedview
     id="base"
     pagecolor="#ffffff"
     bordercolor="#666666"
     borderopacity="1.0"
     inkscape:pageopacity="0.0"
     inkscape:pageshadow="2"
     inkscape:zoom="0.77472527"
     inkscape:cx="118.6383"
     inkscape:cy="240"
     inkscape:current-layer="layer1"
     inkscape:document-units="px"
     showgrid="false"
     inkscape:window-width="1366"
     inkscape:window-height="719"
     inkscape:window-x="0"
     inkscape:window-y="25"
     inkscape:window-maximized="1" />
  <metadata
     id="metadata4153">
    <rdf:RDF>
      <cc:Work
         rdf:about="">
        <dc:format>image/svg+xml</dc:format>
        <dc:type
           rdf:resource="http://purl.org/dc/dcmitype/StillImage" />
        <dc:title />
      </cc:Work>
    </rdf:RDF>
  </metadata>
  <g
     id="layer1"
     inkscape:label="Layer 1"
     inkscape:groupmode="layer">
    <path
       style="fill:#ff6600;fill-opacity:1;fill-rule:nonzero;stroke:#170f0f;stroke-width:13.67892265;stroke-miterlimit:4;stroke-dasharray:none;stroke-opacity:1"
       d="m 312.19416,410.19041 c -26.4121,-39.19454 -52.64072,-73.32122 -58.28585,-75.83704 -5.64502,-2.51592 -42.75284,18.32217 -82.46182,46.30682 -45.06106,31.75654 -69.69767,44.36561 -65.54576,33.54644 28.58932,-74.49843 43.86738,-127.46048 38.55637,-133.65743 -3.46684,-4.04504 -31.40053,-10.06859 -62.074843,-13.38566 -94.49776,-10.21887 -95.199492,-14.37701 -6.912065,-40.95664 l 83.848638,-25.24333 -22.65788,-53.72559 c -33.72321,-79.963394 -32.6288,-80.864394 55.698,-45.8535 43.19675,17.12222 80.90206,31.1313 83.78953,31.1313 2.88744,0 16.74985,-27.30236 30.80528,-60.671864 14.05548,-33.369503 27.0169,-60.671866 28.80305,-60.671866 1.78628,0 18.73547,29.252492 37.66497,65.005578 18.92953,35.753082 38.74976,65.005562 44.04506,65.005562 5.29529,0 29.04512,-5.85053 52.77739,-13.00111 66.00316,-19.88701 69.46061,-16.16811 22.98942,24.72807 -23.57974,20.75102 -42.87243,40.03879 -42.87243,42.86163 0,2.82292 43.46954,23.87301 96.59885,46.77807 53.12932,22.90511 89.63808,42.69028 81.13056,43.96712 -8.50748,1.27691 -66.85083,7.24983 -129.65199,13.2733 l -114.18384,10.95178 -8.6423,69.06713 c -4.7533,37.98688 -10.16201,76.39687 -12.01931,85.3555 -2.06784,9.97366 -21.99454,-11.33902 -51.39903,-54.97427 l 0,0 z"
       id="path4168"
       inkscape:connector-curvature="0" />
    <path
       style="fill:#ffff00;fill-opacity:1;fill-rule:nonzero;stroke:#170f0f;stroke-width:5.94487667;stroke-miterlimit:4;stroke-dasharray:none;stroke-opacity:1"
       d="m 307.79123,321.82246 c -10.29624,-18.99029 -20.52093,-35.52516 -22.72157,-36.74412 -2.2006,-1.21899 -16.66639,8.87736 -32.14614,22.4363 -17.56616,15.3865 -27.17024,21.49577 -25.55171,16.25373 11.14498,-36.09554 17.10081,-61.75637 15.03043,-64.75888 -1.35149,-1.9599 -12.24087,-4.87839 -24.19865,-6.48554 -36.83807,-4.95121 -37.11165,-6.96587 -2.69453,-19.84409 l 32.68673,-12.23073 -8.83271,-26.03082 c -13.14633,-38.74338 -12.71971,-39.17991 21.71276,-22.21667 16.83942,8.29598 31.53808,15.08358 32.66368,15.08358 1.12563,0 6.52961,-13.22841 12.00886,-29.39639 5.47924,-16.168 10.53199,-29.39636 11.2283,-29.39636 0.69634,0 7.30365,14.17325 14.68293,31.49611 7.37931,17.32286 15.10584,31.49612 17.17011,31.49612 2.06426,0 11.32266,-2.83469 20.57422,-6.29924 25.73003,-9.63552 27.07784,-7.83368 8.96197,11.98112 -9.19209,10.05412 -16.71298,19.39934 -16.71298,20.76706 0,1.36773 16.94576,11.5668 37.65717,22.66462 20.71142,11.09784 34.94365,20.68404 31.62716,21.3027 -3.31649,0.61867 -26.06049,3.51263 -50.54229,6.4311 l -44.51232,5.30628 -3.36902,33.46398 c -1.85298,18.40517 -3.96147,37.01536 -4.6855,41.35594 -0.8061,4.83238 -8.57412,-5.49391 -20.0369,-26.6358 l 0,0 z"
       id="path4168-4"
       inkscape:connector-curvature="0" />
  </g>
</svg>
