<?xml version="1.0" encoding="UTF-8" standalone="no"?>
<!-- Created with Inkscape (http://www.inkscape.org/) -->

<svg
   xmlns:dc="http://purl.org/dc/elements/1.1/"
   xmlns:cc="http://creativecommons.org/ns#"
   xmlns:rdf="http://www.w3.org/1999/02/22-rdf-syntax-ns#"
   xmlns:svg="http://www.w3.org/2000/svg"
   xmlns="http://www.w3.org/2000/svg"
   xmlns:sodipodi="http://sodipodi.sourceforge.net/DTD/sodipodi-0.dtd"
   xmlns:inkscape="http://www.inkscape.org/namespaces/inkscape"
   width="640px"
   height="480px"
   id="svg4148"
   version="1.1"
   inkscape:version="0.47 r22583"
   sodipodi:docname="car explosion.svg">
  <defs
     id="defs4150">
    <inkscape:perspective
       sodipodi:type="inkscape:persp3d"
       inkscape:vp_x="0 : 240 : 1"
       inkscape:vp_y="0 : 1000 : 0"
       inkscape:vp_z="640 : 240 : 1"
       inkscape:persp3d-origin="320 : 160 : 1"
       id="perspective4156" />
    <inkscape:perspective
       id="perspective4688"
       inkscape:persp3d-origin="0.5 : 0.33333333 : 1"
       inkscape:vp_z="1 : 0.5 : 1"
       inkscape:vp_y="0 : 1000 : 0"
       inkscape:vp_x="0 : 0.5 : 1"
       sodipodi:type="inkscape:persp3d" />
  </defs>
  <sodipodi:namedview
     id="base"
     pagecolor="#ffffff"
     bordercolor="#666666"
     borderopacity="1.0"
     inkscape:pageopacity="0.0"
     inkscape:pageshadow="2"
     inkscape:zoom="0.77472527"
     inkscape:cx="118.6383"
     inkscape:cy="240"
     inkscape:current-layer="layer1"
     inkscape:document-units="px"
     showgrid="false"
     inkscape:window-width="1366"
     inkscape:window-height="718"
     inkscape:window-x="-8"
     inkscape:window-y="-8"
     inkscape:window-maximized="1" />
  <metadata
     id="metadata4153">
    <rdf:RDF>
      <cc:Work
         rdf:about="">
        <dc:format>image/svg+xml</dc:format>
        <dc:type
           rdf:resource="http://purl.org/dc/dcmitype/StillImage" />
        <dc:title></dc:title>
      </cc:Work>
    </rdf:RDF>
  </metadata>
  <g
     id="layer1"
     inkscape:label="Layer 1"
     inkscape:groupmode="layer">
    <path
       style="fill:#ff6600;fill-opacity:1;fill-rule:nonzero;stroke:#170f0f;stroke-width:5.33176756;stroke-miterlimit:4;stroke-opacity:1;stroke-dasharray:none"
       d="m 174.8132,195.25138 c -10.35057,-15.19507 -20.62924,-28.42542 -22.84149,-29.40076 -2.21222,-0.97538 -16.75431,7.1032 -32.31576,17.95238 -17.65887,12.31149 -27.313648,17.19981 -25.68657,13.0054 11.2038,-28.8818 17.19108,-49.41431 15.10976,-51.81676 -1.35861,-1.5682 -12.305473,-3.90343 -24.326351,-5.1894 -37.032495,-3.96169 -37.307495,-5.57373 -2.708753,-15.87821 l 32.859234,-9.78642 -8.87934,-20.828519 C 92.808223,62.308613 93.237105,61.95931 127.85128,75.53245 c 16.92827,6.638002 31.70451,12.069089 32.83607,12.069089 1.13155,0 6.56406,-10.58467 12.07221,-23.521473 5.50816,-12.936802 10.58758,-23.521474 11.28755,-23.521474 0.70002,0 7.3422,11.340705 14.76043,25.20158 7.41825,13.860874 15.18555,25.20158 17.26071,25.20158 2.07516,0 11.38242,-2.268154 20.6828,-5.040317 25.86582,-7.709862 27.22075,-6.268109 9.00927,9.586665 -9.24061,8.04482 -16.80117,15.52237 -16.80117,16.61674 0,1.0944 17.03517,9.25517 37.85588,18.13508 20.82072,8.87993 35.12805,16.55031 31.79406,17.04532 -3.33398,0.49504 -26.19801,2.81064 -50.809,5.14584 l -44.74722,4.24582 -3.38681,26.77618 c -1.86276,14.72688 -3.98237,29.6178 -4.71022,33.09091 -0.81036,3.86662 -8.61938,-4.39595 -20.14264,-21.31261 l 0,0 z"
       id="path4168" />
    <path
       style="fill:#ffff00;fill-opacity:1;fill-rule:nonzero;stroke:#170f0f;stroke-width:2.31719279;stroke-miterlimit:4;stroke-opacity:1;stroke-dasharray:none"
       d="m 173.08775,160.99259 c -4.03497,-7.36222 -8.0419,-13.77251 -8.9043,-14.24508 -0.86239,-0.47258 -6.53135,3.4416 -12.59767,8.69818 -6.88396,5.96509 -10.64768,8.33355 -10.0134,6.3013 4.36758,-13.99364 6.7016,-23.94192 5.89024,-25.10594 -0.52963,-0.75982 -4.79704,-1.89127 -9.48315,-2.51434 -14.43638,-1.9195 -14.54359,-2.70055 -1.05595,-7.69322 l 12.80952,-4.74165 -3.46143,-10.09172 c -5.15188,-15.020161 -4.98469,-15.189401 8.50896,-8.61303 6.59916,3.21621 12.35938,5.84765 12.80049,5.84765 0.44112,0 2.55887,-5.12843 4.70612,-11.396491 2.14725,-6.26806 4.12736,-11.396482 4.40023,-11.396482 0.27289,0 2.86221,5.494732 5.75406,12.210522 2.89186,6.715781 5.91979,12.210521 6.72875,12.210521 0.80896,0 4.43721,-1.09896 8.06278,-2.44211 10.08328,-3.73553 10.61147,-3.03699 3.51209,4.64488 -3.60227,3.89782 -6.54961,7.5208 -6.54961,8.05104 0,0.53025 6.64083,4.48426 14.75737,8.7867 8.11655,4.30245 13.69398,8.01886 12.39429,8.2587 -1.29969,0.23985 -10.21278,1.36179 -19.80689,2.49323 l -17.44382,2.05716 -1.32028,12.97343 c -0.72616,7.13538 -1.55245,14.35024 -1.83619,16.03301 -0.3159,1.87343 -3.36009,-2.1299 -7.85221,-10.32626 l 0,0 z"
       id="path4168-4" />
  </g>
</svg>
