<?xml version="1.0" encoding="UTF-8" standalone="no"?>
<svg
   xmlns:dc="http://purl.org/dc/elements/1.1/"
   xmlns:cc="http://creativecommons.org/ns#"
   xmlns:rdf="http://www.w3.org/1999/02/22-rdf-syntax-ns#"
   xmlns:svg="http://www.w3.org/2000/svg"
   xmlns="http://www.w3.org/2000/svg"
   xmlns:sodipodi="http://sodipodi.sourceforge.net/DTD/sodipodi-0.dtd"
   xmlns:inkscape="http://www.inkscape.org/namespaces/inkscape"
   width="377.1225"
   height="478.93777"
   id="svg3570"
   version="1.1"
   inkscape:version="0.91 r13725"
   sodipodi:docname="fire.svg">
  <defs
     id="defs3585" />
  <sodipodi:namedview
     pagecolor="#ffffff"
     bordercolor="#666666"
     borderopacity="1"
     objecttolerance="10"
     gridtolerance="10"
     guidetolerance="10"
     inkscape:pageopacity="0"
     inkscape:pageshadow="2"
     inkscape:window-width="995"
     inkscape:window-height="704"
     id="namedview3583"
     showgrid="false"
     inkscape:zoom="0.49275712"
     inkscape:cx="26065.396"
     inkscape:cy="239.46889"
     inkscape:window-x="0"
     inkscape:window-y="25"
     inkscape:window-maximized="0"
     inkscape:current-layer="svg3570" />
  <metadata
     id="metadata7">image/svg+xml<rdf:RDF>
  <cc:Work
     rdf:about="">
    <dc:format>image/svg+xml</dc:format>
    <dc:type
       rdf:resource="http://purl.org/dc/dcmitype/StillImage" />
  </cc:Work>
</rdf:RDF>
</metadata>
  <g
     id="g3573"
     transform="matrix(0.93969262,0.34202014,-0.34202014,0.93969262,26067.078,8.5685031)">
    <title
       id="title3575">Layer 1</title>
    <g
       id="g3846"
       transform="matrix(0.02764273,0.56619548,-0.8588309,-0.00908045,391.9944,159.85562)">
      <path
         id="path3834"
         d="m 86.464966,162.04904 c 0.471069,27.19257 -3.135132,55.38739 9.266602,80.80603 9.151852,30.49872 32.088012,53.6604 44.574462,82.70325 21.67786,26.89014 12.547,62.81274 15.28613,94.18646 -1.9541,19.43457 -14.12133,13.64722 -5.80102,-2.32031 7.57788,-31.15869 16.41614,-68.84979 49.23718,-82.59247 21.08844,-10.42499 44.52033,-19.34326 57.21143,-40.70844 22.72369,-29.11584 30.37103,-65.8797 33.57214,-101.79211 0.32263,-17.75598 10.18109,-50.79257 -4.44592,-59.0206 -16.54736,19.3956 -43.69623,16.61862 -66.26062,21.33725 -26.3346,2.34686 -52.38855,-2.02142 -78.44202,-4.06445 -17.46496,3.09735 -42.4447,-6.45291 -54.646116,6.02502 l 0.447754,5.44037 0,0 z"
         inkscape:connector-curvature="0"
         style="fill:#ffcc00" />
      <path
         id="path3047"
         d="m 99.477783,149.70462 c -2.295776,29.75995 -11.955444,61.82428 1.737187,90.16681 7.03796,14.49591 21.79651,22.55469 29.42627,36.70312 17.6488,27.51197 22.80127,61.33082 22.35083,93.73615 8.44848,24.22711 -12.63135,45.20166 -12.86695,68.86261 -0.16076,6.24719 4.77735,14.63736 5.17981,3.67255 3.44593,-25.19208 -10.59399,-52.60413 3.40698,-76.07789 24.17066,-22.00964 62.31904,-5.20483 86.01539,-28.47369 26.48602,-20.72052 53.52221,-47.19696 58.03173,-82.91089 5.03717,-27.49975 -4.61523,-54.72558 -16.75457,-78.81598 -6.32196,-11.91894 -11.30951,-24.7135 -18.08118,-36.27359 -18.50183,-22.62372 -49.57401,-25.9408 -76.49567,-25.26221 -13.203,-1.20349 -25.19702,4.19433 -35.9248,11.73669 -14.53711,9.14521 -28.99817,19.46757 -46.025027,22.93632 z"
         inkscape:connector-curvature="0"
         style="opacity:0.51229499;fill:#ffff00" />
      <path
         id="path3054"
         d="m 107.89356,147.76327 c -0.58667,20.62226 -7.18079,43.17017 4.25524,62.11097 5.2356,11.10528 11.50647,21.83221 19.5514,31.2052 7.25024,9.28064 16.08825,17.32006 22.8551,26.93267 14.14123,24.91706 11.30359,56.09125 0.009,81.50843 -0.69983,3.40881 -4.14856,10.27014 -1.97925,2.26733 3.1471,-9.77539 5.04236,-21.59033 13.69348,-28.1261 20.66553,-15.71002 50.38831,-14.60339 68.5304,-34.3305 15.6438,-10.58722 19.78522,-31.17914 17.32874,-48.84204 -1.72638,-14.80121 -7.4516,-28.69269 -10.54053,-43.21045 -3.1535,-12.19318 -9.2862,-26.68482 -23.29376,-28.85181 -13.15372,-0.95978 -26.37055,1.44592 -39.57355,1.04419 -11.91797,-0.80847 -25.13867,1.42609 -36.11353,-3.67236 -9.08435,-6.15229 -14.08276,-18.80475 -25.84472,-20.50458 -3.13819,-0.2204 -6.219,0.87768 -8.8783,2.46905 l 2.5e-4,0 z"
         inkscape:connector-curvature="0"
         style="opacity:0.51229499;fill:#ff0000" />
      <path
         id="path3061"
         d="m 115.03638,153.47757 c -0.38074,22.65967 -6.25586,47.46875 5.97107,68.19373 8.86731,15.14807 20.56298,28.43585 32.06689,41.61554 12.18408,12.7182 23.2096,28.05926 24.07739,46.28991 2.91455,19.6612 1.27674,40.01648 -6.10656,58.55426 4.38708,-11.35235 6.08007,-23.60907 11.81811,-34.52215 3.92444,-9.66315 11.73255,-15.68848 15.85608,-25.68378 8.10501,-14.21289 15.30359,-32.04138 32.30994,-37.33289 28.31842,-12.776 -2.25623,-46.27313 24.86047,-61.5224 13.22058,-7.76654 49.21497,-20.95318 50.57062,-36.56286 2.48791,-15.26154 35.52417,-7.94153 36.02319,-23.27991 -0.54913,-12.71884 -10.16681,-27.73624 -24.57025,-25.22452 -18.36047,2.00598 -36.64441,5.24372 -54.98999,7.66712 -36.80316,3.80096 -73.4862,14.1625 -110.72107,9.6654 -13.45434,-0.16363 -24.81604,8.12137 -37.16589,12.14255 z"
         inkscape:connector-curvature="0"
         style="opacity:0.51229499;fill:#ff6600" />
      <path
         id="path3841"
         d="m 189.32214,143.47754 c -3.04553,15.16751 -21.02063,17.51358 -30.8667,26.85458 -12.86853,7.29669 -11.29858,22.77918 -12.22106,35.40131 -2.55884,18.39886 16.58508,27.18121 26.2279,39.72015 8.97559,13.27008 3.02502,31.52979 -2.8219,44.81104 -1.72388,16.44665 -8.47729,35.65368 4.7876,49.22864 -1.47058,0.49993 -12.03052,-25.80109 -0.22437,-32.56678 12.70643,-6.41699 31.63889,4.0672 39.06293,-13.5993 10.04004,-12.60529 12.32355,-28.9469 17.8523,-43.70795 4.88769,-20.49872 6.97644,-42.23071 4.32641,-63.12829 -4.74768,-14.31256 -11.79309,-28.17072 -20.65564,-40.34076 -8.69754,-10.75516 -22.66192,13.53448 -29.61822,3.96771 1.27026,-2.28546 2.94812,-4.30487 4.15075,-6.64035 z"
         inkscape:connector-curvature="0"
         style="fill:#ff0000" />
    </g>
  </g>
</svg>
