<?xml version="1.0" encoding="UTF-8"?>
<svg width="703.14789" height="636.00146" xmlns="http://www.w3.org/2000/svg" xmlns:svg="http://www.w3.org/2000/svg">
 <title>white pirate ship</title>

 <g>
  <title>Layer 1</title>
  <g id="layer1">
   <path fill="none" fill-opacity="0.75" fill-rule="evenodd" stroke="black" stroke-width="1px" id="path1928" d="m224.55084,396.144289l-12.85715,-24.28571"/>
   <path fill="none" fill-opacity="0.75" fill-rule="evenodd" stroke="black" stroke-width="1px" id="path1930" d="m404.55084,395.430009l19.28571,-21.42857"/>
   <path fill="none" fill-opacity="0.75" fill-rule="evenodd" stroke="black" stroke-width="1px" id="path10833" d="m271.67926,30.459489l-38.38579,32.32488"/>
   <path fill="none" fill-opacity="0.75" fill-rule="evenodd" stroke="black" stroke-width="1px" id="path1918" d="m468.12226,141.858579l32.14286,18.57143"/>
   <path fill="none" fill-opacity="0.75" fill-rule="evenodd" stroke="black" stroke-width="1px" id="path1920" d="m473.83655,396.858579l26.42857,-27.14286"/>
   <path fill="none" fill-opacity="0.75" fill-rule="evenodd" stroke="black" stroke-width="1px" id="path1922" d="m690.26512,394.715719l-23.57143,-24.28571"/>
   <path fill="none" fill-opacity="0.75" fill-rule="evenodd" stroke="black" stroke-width="1px" id="path10835" d="m326.2275,30.459489l62.62946,32.32488"/>
   <path fill="none" fill-opacity="0.75" fill-rule="evenodd" stroke="black" stroke-width="1px" id="path12637" d="m387.40798,186.858579l16.42857,8.57143"/>
   <path fill="none" fill-opacity="0.75" fill-rule="evenodd" stroke="black" stroke-width="1px" id="path12635" d="m233.83655,186.144289l-8.57143,9.28572"/>
   <path fill="none" fill-opacity="0.75" fill-rule="evenodd" stroke="black" stroke-width="1px" id="path1932" d="m403.12226,194.715719l23.57143,25.71429"/>
   <path fill="none" fill-opacity="0.75" fill-rule="evenodd" stroke="black" stroke-width="1px" id="path1934" d="m228.83655,195.430009c0,0 -15,20 -15.71429,22.85714"/>
   <path fill="none" fill-opacity="0.75" fill-rule="evenodd" stroke="black" stroke-width="1px" id="path1936" d="m197.40798,146.144289l-42.85714,42.14286"/>
   <path fill="none" fill-opacity="0.75" fill-rule="evenodd" stroke="black" stroke-width="1px" id="path1924" d="m193.12226,421.144289l-38.57142,-34.28571"/>
   <path fill="none" fill-opacity="0.75" fill-rule="evenodd" stroke="black" stroke-width="1px" id="path1926" d="m10.26512,422.572869l28.57143,-37.14286"/>
   <path fill="#803300" fill-rule="evenodd" stroke="black" stroke-width="4" stroke-linecap="round" stroke-miterlimit="4" id="path1908" d="m463.1178,390.362469c-2.34413,-0.03315 -4.52453,1.19844 -5.70627,3.22317c-1.18174,2.02474 -1.18174,4.52892 0,6.55366c1.18174,2.02473 3.36214,3.25632 5.70627,3.22317l231.4375,0c2.34413,0.03315 4.52453,-1.19844 5.70627,-3.22317c1.18174,-2.02474 1.18174,-4.52892 0,-6.55366c-1.18174,-2.02473 -3.36214,-3.25632 -5.70627,-3.22317l-231.4375,0z"/>
   <path fill="#803300" fill-rule="evenodd" stroke="black" stroke-width="4" stroke-linecap="round" stroke-miterlimit="4" id="path1912" d="m8.1803,416.081219c-3.58985,0.18122 -6.35309,3.23827 -6.17187,6.82812c0.18121,3.58986 3.23827,6.3531 6.82812,6.17188l188.5625,0c2.34413,0.03315 4.52453,-1.19844 5.70627,-3.22317c1.18174,-2.02474 1.18174,-4.52892 0,-6.55366c-1.18174,-2.02473 -3.36214,-3.25632 -5.70627,-3.22317l-188.5625,0c-0.21861,-0.01105 -0.43764,-0.01105 -0.65625,0l0,0z"/>
   <path fill="#803300" fill-rule="evenodd" stroke="black" stroke-width="4" stroke-linecap="square" stroke-miterlimit="4" id="path1874" d="m184.89905,132.924969l0,12.5l0,348.5625l0,12.5l25,0l0,-12.5l0,-348.5625l0,-12.5c0,0 -6.25,-8.08122 -12.5,-8.08122c-6.25,0 -12.5,8.08122 -12.5,8.08122zm105.71875,-122.84375l0,12.5l0,468.5625l0,12.5l25,0l0,-12.5l0,-468.5625l0,-12.5c0,0 -6.25,-8.08122 -12.5,-8.08122c-6.25,0 -12.5,8.08122 -12.5,8.08122zm165.71875,117.125l0,12.5l0,297.15625l0,12.5l25,0l0,-12.5l0,-297.15625l0,-12.5c0,0 -6.25,-8.08122 -12.5,-8.08122c-6.25,0 -12.5,8.08122 -12.5,8.08122z"/>
   <path fill="#803300" fill-rule="evenodd" stroke="black" stroke-width="4" stroke-linecap="round" stroke-miterlimit="4" id="path1906" d="m223.1178,390.362469c-2.34413,-0.03315 -4.52453,1.19844 -5.70627,3.22317c-1.18174,2.02474 -1.18174,4.52892 0,6.55366c1.18174,2.02473 3.36214,3.25632 5.70627,3.22317l182.875,0c2.34413,0.03315 4.52453,-1.19844 5.70627,-3.22317c1.18174,-2.02474 1.18174,-4.52892 0,-6.55366c-1.18174,-2.02473 -3.36214,-3.25632 -5.70627,-3.22317l-182.875,0z"/>
   <path fill="#803300" fill-rule="evenodd" stroke="black" stroke-width="4" stroke-linecap="round" stroke-miterlimit="4" id="path1910" d="m268.83655,24.643719c-2.34413,-0.03315 -4.52453,1.19844 -5.70627,3.22317c-1.18174,2.02474 -1.18174,4.52892 0,6.55366c1.18174,2.02473 3.36214,3.25632 5.70627,3.22317l60,0c2.34413,0.03315 4.52453,-1.19844 5.70627,-3.22317c1.18174,-2.02474 1.18174,-4.52892 0,-6.55366c-1.18174,-2.02473 -3.36214,-3.25632 -5.70627,-3.22317l-60,0z"/>
   <path fill="#803300" fill-rule="evenodd" stroke="black" stroke-width="4" stroke-linecap="round" stroke-miterlimit="4" id="use12631" d="m223.1178,188.933899c-2.34413,-0.03315 -4.52453,1.19844 -5.70627,3.22317c-1.18174,2.02474 -1.18174,4.52892 0,6.55366c1.18174,2.02473 3.36214,3.25632 5.70627,3.22317l182.875,0c2.34413,0.03315 4.52453,-1.19844 5.70627,-3.22317c1.18174,-2.02474 1.18174,-4.52892 0,-6.55366c-1.18174,-2.02473 -3.36214,-3.25632 -5.70627,-3.22317l-182.875,0z"/>
   <path fill="#ff0000" fill-rule="evenodd" stroke="black" stroke-width="1px" id="path1880" d="m500.26512,159.715719c0,0 22.85714,47.14286 22.85714,100c0,52.85714 -22.85714,111.42858 -22.85714,111.42858c0,0 42.14286,-22.85714 84.28572,-22.85714c42.14286,0 84.28571,22.85714 84.28571,22.85714c0,0 -16.42856,-61.42858 -58.57142,-114.28572c-42.14286,-52.85714 -110.00001,-97.14286 -110.00001,-97.14286z"/>
   <g id="g13152">
    <path fill="#803300" fill-rule="evenodd" stroke="black" stroke-width="4" stroke-miterlimit="4" id="path1872" d="m94.55084,502.572869c0,0 32.95867,24.77592 55.81582,57.63306c22.85714,32.85715 35.61275,73.79551 35.61275,73.79551l348.57143,0c0,0 1.20449,-53.91806 10.4902,-101.77521c9.28572,-47.85714 26.65265,-89.65336 26.65265,-89.65336l-157.14285,0l-5.71429,48.57143l-314.28571,11.42857z"/>
    <path fill="none" fill-opacity="0.75" fill-rule="evenodd" stroke="black" stroke-width="2" stroke-miterlimit="4" id="path1888" d="m116.55084,526.287149l428.57142,0"/>
    <path fill="none" fill-opacity="0.75" fill-rule="evenodd" stroke="black" stroke-width="2" stroke-miterlimit="4" id="path1890" d="m155.59073,556.858579l381.81725,0"/>
    <path fill="none" fill-opacity="0.75" fill-rule="evenodd" stroke="black" stroke-width="2" stroke-miterlimit="4" id="path1892" d="m531.69369,585.430009l-365.71428,0"/>
    <path fill="none" fill-opacity="0.75" fill-rule="evenodd" stroke="black" stroke-width="2" stroke-miterlimit="4" id="path1894" d="m180.26512,611.144299l345.71429,0"/>
    <path fill="none" fill-opacity="0.75" fill-rule="evenodd" stroke="black" stroke-width="2" stroke-miterlimit="4" id="path1896" d="m425.97941,465.430009l125.71428,0"/>
    <path fill="none" fill-opacity="0.75" fill-rule="evenodd" stroke="black" stroke-width="2" stroke-miterlimit="4" id="path1898" d="m545.97941,488.287149l-125.71429,-2.85714"/>
   </g>
   <path fill="#ff0000" fill-rule="evenodd" stroke="black" stroke-width="1px" id="path1882" d="m235.55084,61.572869c0,0 38.57143,-20 77.14286,-20c38.57143,0 77.14285,20 77.14285,20c0,0 22.85714,31.42857 22.85714,62.85714c0,31.42857 -22.85714,62.85714 -22.85714,62.85714c0,0 -39.28572,-20 -78.57143,-20c-39.28571,0 -78.57143,20 -78.57143,20c0,0 20.71428,-31.42857 21.42857,-62.85714c0.71429,-31.42857 -18.57142,-62.85714 -18.57142,-62.85714z"/>
   <path fill="#ff0000" fill-rule="evenodd" stroke="black" stroke-width="1px" id="path1884" d="m211.69369,219.715719c0,0 53.57143,-20 107.14286,-20c53.57143,0 107.14286,20 107.14286,20c0,0 25.71429,38.57143 25.71429,77.14286c0,38.57143 -25.71429,77.14286 -25.71429,77.14286c0,0 -53.57143,-25.71429 -107.14286,-25.71429c-53.57143,0 -107.14286,25.71429 -107.14286,25.71429c0,0 20,-41.42857 20,-80c0,-38.57143 -20,-74.28572 -20,-74.28572z"/>
   <path fill="#ff0000" fill-rule="evenodd" stroke="black" stroke-width="1px" id="path1886" d="m154.55084,185.430009c0,0 0,50 0,100c0,50 0,100 0,100c0,0 -9.28571,-11.42857 -47.14286,-11.42857c-37.85714,0 -70,11.42857 -70,11.42857c0,0 32.14286,-32.85714 70,-82.85714c37.85715,-50 47.14286,-117.14286 47.14286,-117.14286z"/>
  </g>
 </g>
</svg>