<?xml version="1.0" encoding="UTF-8" standalone="no"?>
<svg
   xmlns:dc="http://purl.org/dc/elements/1.1/"
   xmlns:cc="http://creativecommons.org/ns#"
   xmlns:rdf="http://www.w3.org/1999/02/22-rdf-syntax-ns#"
   xmlns:svg="http://www.w3.org/2000/svg"
   xmlns="http://www.w3.org/2000/svg"
   xmlns:sodipodi="http://sodipodi.sourceforge.net/DTD/sodipodi-0.dtd"
   xmlns:inkscape="http://www.inkscape.org/namespaces/inkscape"
   width="703.14789"
   height="636.00146"
   id="svg3418"
   version="1.1"
   inkscape:version="0.91 r13725"
   sodipodi:docname="ship_fire.svg">
  <metadata
     id="metadata3463">
    <rdf:RDF>
      <cc:Work
         rdf:about="">
        <dc:format>image/svg+xml</dc:format>
        <dc:type
           rdf:resource="http://purl.org/dc/dcmitype/StillImage" />
        <dc:title>white pirate ship</dc:title>
      </cc:Work>
    </rdf:RDF>
  </metadata>
  <defs
     id="defs3461" />
  <sodipodi:namedview
     pagecolor="#ffffff"
     bordercolor="#666666"
     borderopacity="1"
     objecttolerance="10"
     gridtolerance="10"
     guidetolerance="10"
     inkscape:pageopacity="0"
     inkscape:pageshadow="2"
     inkscape:window-width="1366"
     inkscape:window-height="719"
     id="namedview3459"
     showgrid="false"
     inkscape:zoom="0.85062697"
     inkscape:cx="141.14093"
     inkscape:cy="318.00073"
     inkscape:window-x="0"
     inkscape:window-y="25"
     inkscape:window-maximized="1"
     inkscape:current-layer="svg3418" />
  <title
     id="title3420">white pirate ship</title>
  <g
     id="g3422">
    <title
       id="title3424">Layer 1</title>
    <g
       id="layer1">
      <path
         fill="none"
         fill-opacity="0.75"
         fill-rule="evenodd"
         stroke="black"
         stroke-width="1px"
         id="path1928"
         d="m224.55084,396.144289l-12.85715,-24.28571" />
      <path
         fill="none"
         fill-opacity="0.75"
         fill-rule="evenodd"
         stroke="black"
         stroke-width="1px"
         id="path1930"
         d="m404.55084,395.430009l19.28571,-21.42857" />
      <path
         fill="none"
         fill-opacity="0.75"
         fill-rule="evenodd"
         stroke="black"
         stroke-width="1px"
         id="path10833"
         d="m271.67926,30.459489l-38.38579,32.32488" />
      <path
         fill="none"
         fill-opacity="0.75"
         fill-rule="evenodd"
         stroke="black"
         stroke-width="1px"
         id="path1918"
         d="m468.12226,141.858579l32.14286,18.57143" />
      <path
         fill="none"
         fill-opacity="0.75"
         fill-rule="evenodd"
         stroke="black"
         stroke-width="1px"
         id="path1920"
         d="m473.83655,396.858579l26.42857,-27.14286" />
      <path
         fill="none"
         fill-opacity="0.75"
         fill-rule="evenodd"
         stroke="black"
         stroke-width="1px"
         id="path1922"
         d="m690.26512,394.715719l-23.57143,-24.28571" />
      <path
         fill="none"
         fill-opacity="0.75"
         fill-rule="evenodd"
         stroke="black"
         stroke-width="1px"
         id="path10835"
         d="m326.2275,30.459489l62.62946,32.32488" />
      <path
         fill="none"
         fill-opacity="0.75"
         fill-rule="evenodd"
         stroke="black"
         stroke-width="1px"
         id="path12637"
         d="m387.40798,186.858579l16.42857,8.57143" />
      <path
         fill="none"
         fill-opacity="0.75"
         fill-rule="evenodd"
         stroke="black"
         stroke-width="1px"
         id="path12635"
         d="m233.83655,186.144289l-8.57143,9.28572" />
      <path
         fill="none"
         fill-opacity="0.75"
         fill-rule="evenodd"
         stroke="black"
         stroke-width="1px"
         id="path1932"
         d="m403.12226,194.715719l23.57143,25.71429" />
      <path
         fill="none"
         fill-opacity="0.75"
         fill-rule="evenodd"
         stroke="black"
         stroke-width="1px"
         id="path1934"
         d="m228.83655,195.430009c0,0 -15,20 -15.71429,22.85714" />
      <path
         fill="none"
         fill-opacity="0.75"
         fill-rule="evenodd"
         stroke="black"
         stroke-width="1px"
         id="path1936"
         d="m197.40798,146.144289l-42.85714,42.14286" />
      <path
         fill="none"
         fill-opacity="0.75"
         fill-rule="evenodd"
         stroke="black"
         stroke-width="1px"
         id="path1924"
         d="m193.12226,421.144289l-38.57142,-34.28571" />
      <path
         fill="none"
         fill-opacity="0.75"
         fill-rule="evenodd"
         stroke="black"
         stroke-width="1px"
         id="path1926"
         d="m10.26512,422.572869l28.57143,-37.14286" />
      <path
         fill="#803300"
         fill-rule="evenodd"
         stroke="black"
         stroke-width="4"
         stroke-linecap="round"
         stroke-miterlimit="4"
         id="path1908"
         d="m463.1178,390.362469c-2.34413,-0.03315 -4.52453,1.19844 -5.70627,3.22317c-1.18174,2.02474 -1.18174,4.52892 0,6.55366c1.18174,2.02473 3.36214,3.25632 5.70627,3.22317l231.4375,0c2.34413,0.03315 4.52453,-1.19844 5.70627,-3.22317c1.18174,-2.02474 1.18174,-4.52892 0,-6.55366c-1.18174,-2.02473 -3.36214,-3.25632 -5.70627,-3.22317l-231.4375,0z" />
      <path
         fill="#803300"
         fill-rule="evenodd"
         stroke="black"
         stroke-width="4"
         stroke-linecap="round"
         stroke-miterlimit="4"
         id="path1912"
         d="m8.1803,416.081219c-3.58985,0.18122 -6.35309,3.23827 -6.17187,6.82812c0.18121,3.58986 3.23827,6.3531 6.82812,6.17188l188.5625,0c2.34413,0.03315 4.52453,-1.19844 5.70627,-3.22317c1.18174,-2.02474 1.18174,-4.52892 0,-6.55366c-1.18174,-2.02473 -3.36214,-3.25632 -5.70627,-3.22317l-188.5625,0c-0.21861,-0.01105 -0.43764,-0.01105 -0.65625,0l0,0z" />
      <path
         fill="#803300"
         fill-rule="evenodd"
         stroke="black"
         stroke-width="4"
         stroke-linecap="square"
         stroke-miterlimit="4"
         id="path1874"
         d="m184.89905,132.924969l0,12.5l0,348.5625l0,12.5l25,0l0,-12.5l0,-348.5625l0,-12.5c0,0 -6.25,-8.08122 -12.5,-8.08122c-6.25,0 -12.5,8.08122 -12.5,8.08122zm105.71875,-122.84375l0,12.5l0,468.5625l0,12.5l25,0l0,-12.5l0,-468.5625l0,-12.5c0,0 -6.25,-8.08122 -12.5,-8.08122c-6.25,0 -12.5,8.08122 -12.5,8.08122zm165.71875,117.125l0,12.5l0,297.15625l0,12.5l25,0l0,-12.5l0,-297.15625l0,-12.5c0,0 -6.25,-8.08122 -12.5,-8.08122c-6.25,0 -12.5,8.08122 -12.5,8.08122z" />
      <path
         fill="#803300"
         fill-rule="evenodd"
         stroke="black"
         stroke-width="4"
         stroke-linecap="round"
         stroke-miterlimit="4"
         id="path1906"
         d="m223.1178,390.362469c-2.34413,-0.03315 -4.52453,1.19844 -5.70627,3.22317c-1.18174,2.02474 -1.18174,4.52892 0,6.55366c1.18174,2.02473 3.36214,3.25632 5.70627,3.22317l182.875,0c2.34413,0.03315 4.52453,-1.19844 5.70627,-3.22317c1.18174,-2.02474 1.18174,-4.52892 0,-6.55366c-1.18174,-2.02473 -3.36214,-3.25632 -5.70627,-3.22317l-182.875,0z" />
      <path
         fill="#803300"
         fill-rule="evenodd"
         stroke="black"
         stroke-width="4"
         stroke-linecap="round"
         stroke-miterlimit="4"
         id="path1910"
         d="m268.83655,24.643719c-2.34413,-0.03315 -4.52453,1.19844 -5.70627,3.22317c-1.18174,2.02474 -1.18174,4.52892 0,6.55366c1.18174,2.02473 3.36214,3.25632 5.70627,3.22317l60,0c2.34413,0.03315 4.52453,-1.19844 5.70627,-3.22317c1.18174,-2.02474 1.18174,-4.52892 0,-6.55366c-1.18174,-2.02473 -3.36214,-3.25632 -5.70627,-3.22317l-60,0z" />
      <path
         fill="#803300"
         fill-rule="evenodd"
         stroke="black"
         stroke-width="4"
         stroke-linecap="round"
         stroke-miterlimit="4"
         id="use12631"
         d="m223.1178,188.933899c-2.34413,-0.03315 -4.52453,1.19844 -5.70627,3.22317c-1.18174,2.02474 -1.18174,4.52892 0,6.55366c1.18174,2.02473 3.36214,3.25632 5.70627,3.22317l182.875,0c2.34413,0.03315 4.52453,-1.19844 5.70627,-3.22317c1.18174,-2.02474 1.18174,-4.52892 0,-6.55366c-1.18174,-2.02473 -3.36214,-3.25632 -5.70627,-3.22317l-182.875,0z" />
      <path
         fill="#ff0000"
         fill-rule="evenodd"
         stroke="black"
         stroke-width="1px"
         id="path1880"
         d="m500.26512,159.715719c0,0 22.85714,47.14286 22.85714,100c0,52.85714 -22.85714,111.42858 -22.85714,111.42858c0,0 42.14286,-22.85714 84.28572,-22.85714c42.14286,0 84.28571,22.85714 84.28571,22.85714c0,0 -16.42856,-61.42858 -58.57142,-114.28572c-42.14286,-52.85714 -110.00001,-97.14286 -110.00001,-97.14286z" />
      <g
         id="g13152">
        <path
           fill="#803300"
           fill-rule="evenodd"
           stroke="black"
           stroke-width="4"
           stroke-miterlimit="4"
           id="path1872"
           d="m94.55084,502.572869c0,0 32.95867,24.77592 55.81582,57.63306c22.85714,32.85715 35.61275,73.79551 35.61275,73.79551l348.57143,0c0,0 1.20449,-53.91806 10.4902,-101.77521c9.28572,-47.85714 26.65265,-89.65336 26.65265,-89.65336l-157.14285,0l-5.71429,48.57143l-314.28571,11.42857z" />
        <path
           fill="none"
           fill-opacity="0.75"
           fill-rule="evenodd"
           stroke="black"
           stroke-width="2"
           stroke-miterlimit="4"
           id="path1888"
           d="m116.55084,526.287149l428.57142,0" />
        <path
           fill="none"
           fill-opacity="0.75"
           fill-rule="evenodd"
           stroke="black"
           stroke-width="2"
           stroke-miterlimit="4"
           id="path1890"
           d="m155.59073,556.858579l381.81725,0" />
        <path
           fill="none"
           fill-opacity="0.75"
           fill-rule="evenodd"
           stroke="black"
           stroke-width="2"
           stroke-miterlimit="4"
           id="path1892"
           d="m531.69369,585.430009l-365.71428,0" />
        <path
           fill="none"
           fill-opacity="0.75"
           fill-rule="evenodd"
           stroke="black"
           stroke-width="2"
           stroke-miterlimit="4"
           id="path1894"
           d="m180.26512,611.144299l345.71429,0" />
        <path
           fill="none"
           fill-opacity="0.75"
           fill-rule="evenodd"
           stroke="black"
           stroke-width="2"
           stroke-miterlimit="4"
           id="path1896"
           d="m425.97941,465.430009l125.71428,0" />
        <path
           fill="none"
           fill-opacity="0.75"
           fill-rule="evenodd"
           stroke="black"
           stroke-width="2"
           stroke-miterlimit="4"
           id="path1898"
           d="m545.97941,488.287149l-125.71429,-2.85714" />
      </g>
      <path
         fill="#ff0000"
         fill-rule="evenodd"
         stroke="black"
         stroke-width="1px"
         id="path1882"
         d="m235.55084,61.572869c0,0 38.57143,-20 77.14286,-20c38.57143,0 77.14285,20 77.14285,20c0,0 22.85714,31.42857 22.85714,62.85714c0,31.42857 -22.85714,62.85714 -22.85714,62.85714c0,0 -39.28572,-20 -78.57143,-20c-39.28571,0 -78.57143,20 -78.57143,20c0,0 20.71428,-31.42857 21.42857,-62.85714c0.71429,-31.42857 -18.57142,-62.85714 -18.57142,-62.85714z" />
      <path
         fill="#ff0000"
         fill-rule="evenodd"
         stroke="black"
         stroke-width="1px"
         id="path1884"
         d="m211.69369,219.715719c0,0 53.57143,-20 107.14286,-20c53.57143,0 107.14286,20 107.14286,20c0,0 25.71429,38.57143 25.71429,77.14286c0,38.57143 -25.71429,77.14286 -25.71429,77.14286c0,0 -53.57143,-25.71429 -107.14286,-25.71429c-53.57143,0 -107.14286,25.71429 -107.14286,25.71429c0,0 20,-41.42857 20,-80c0,-38.57143 -20,-74.28572 -20,-74.28572z" />
      <path
         fill="#ff0000"
         fill-rule="evenodd"
         stroke="black"
         stroke-width="1px"
         id="path1886"
         d="m154.55084,185.430009c0,0 0,50 0,100c0,50 0,100 0,100c0,0 -9.28571,-11.42857 -47.14286,-11.42857c-37.85714,0 -70,11.42857 -70,11.42857c0,0 32.14286,-32.85714 70,-82.85714c37.85715,-50 47.14286,-117.14286 47.14286,-117.14286z" />
    </g>
  </g>
  <g
     id="g3573"
     transform="matrix(-1.2128453,1.606374,-1.299694,-1.065973,991.0385,282.85322)">
    <title
       id="title3575">Layer 1</title>
    <g
       id="g3846"
       transform="matrix(0.02764273,0.56619548,-0.8588309,-0.00908045,391.9944,159.85562)">
      <path
         id="path3834"
         d="m 86.464966,162.04904 c 0.471069,27.19257 -3.135132,55.38739 9.266602,80.80603 9.151852,30.49872 32.088012,53.6604 44.574462,82.70325 21.67786,26.89014 12.547,62.81274 15.28613,94.18646 -1.9541,19.43457 -14.12133,13.64722 -5.80102,-2.32031 7.57788,-31.15869 16.41614,-68.84979 49.23718,-82.59247 21.08844,-10.42499 44.52033,-19.34326 57.21143,-40.70844 22.72369,-29.11584 30.37103,-65.8797 33.57214,-101.79211 0.32263,-17.75598 10.18109,-50.79257 -4.44592,-59.0206 -16.54736,19.3956 -43.69623,16.61862 -66.26062,21.33725 -26.3346,2.34686 -52.38855,-2.02142 -78.44202,-4.06445 -17.46496,3.09735 -42.4447,-6.45291 -54.646116,6.02502 l 0.447754,5.44037 0,0 z"
         inkscape:connector-curvature="0"
         style="fill:#ffcc00" />
      <path
         id="path3047"
         d="m 99.477783,149.70462 c -2.295776,29.75995 -11.955444,61.82428 1.737187,90.16681 7.03796,14.49591 21.79651,22.55469 29.42627,36.70312 17.6488,27.51197 22.80127,61.33082 22.35083,93.73615 8.44848,24.22711 -12.63135,45.20166 -12.86695,68.86261 -0.16076,6.24719 4.77735,14.63736 5.17981,3.67255 3.44593,-25.19208 -10.59399,-52.60413 3.40698,-76.07789 24.17066,-22.00964 62.31904,-5.20483 86.01539,-28.47369 26.48602,-20.72052 53.52221,-47.19696 58.03173,-82.91089 5.03717,-27.49975 -4.61523,-54.72558 -16.75457,-78.81598 -6.32196,-11.91894 -11.30951,-24.7135 -18.08118,-36.27359 -18.50183,-22.62372 -49.57401,-25.9408 -76.49567,-25.26221 -13.203,-1.20349 -25.19702,4.19433 -35.9248,11.73669 -14.53711,9.14521 -28.99817,19.46757 -46.025027,22.93632 z"
         inkscape:connector-curvature="0"
         style="opacity:0.51229499;fill:#ffff00" />
      <path
         id="path3054"
         d="m 107.89356,147.76327 c -0.58667,20.62226 -7.18079,43.17017 4.25524,62.11097 5.2356,11.10528 11.50647,21.83221 19.5514,31.2052 7.25024,9.28064 16.08825,17.32006 22.8551,26.93267 14.14123,24.91706 11.30359,56.09125 0.009,81.50843 -0.69983,3.40881 -4.14856,10.27014 -1.97925,2.26733 3.1471,-9.77539 5.04236,-21.59033 13.69348,-28.1261 20.66553,-15.71002 50.38831,-14.60339 68.5304,-34.3305 15.6438,-10.58722 19.78522,-31.17914 17.32874,-48.84204 -1.72638,-14.80121 -7.4516,-28.69269 -10.54053,-43.21045 -3.1535,-12.19318 -9.2862,-26.68482 -23.29376,-28.85181 -13.15372,-0.95978 -26.37055,1.44592 -39.57355,1.04419 -11.91797,-0.80847 -25.13867,1.42609 -36.11353,-3.67236 -9.08435,-6.15229 -14.08276,-18.80475 -25.84472,-20.50458 -3.13819,-0.2204 -6.219,0.87768 -8.8783,2.46905 l 2.5e-4,0 z"
         inkscape:connector-curvature="0"
         style="opacity:0.51229499;fill:#ff0000" />
      <path
         id="path3061"
         d="m 115.03638,153.47757 c -0.38074,22.65967 -6.25586,47.46875 5.97107,68.19373 8.86731,15.14807 20.56298,28.43585 32.06689,41.61554 12.18408,12.7182 23.2096,28.05926 24.07739,46.28991 2.91455,19.6612 1.27674,40.01648 -6.10656,58.55426 4.38708,-11.35235 6.08007,-23.60907 11.81811,-34.52215 3.92444,-9.66315 11.73255,-15.68848 15.85608,-25.68378 8.10501,-14.21289 15.30359,-32.04138 32.30994,-37.33289 28.31842,-12.776 -2.25623,-46.27313 24.86047,-61.5224 13.22058,-7.76654 49.21497,-20.95318 50.57062,-36.56286 2.48791,-15.26154 35.52417,-7.94153 36.02319,-23.27991 -0.54913,-12.71884 -10.16681,-27.73624 -24.57025,-25.22452 -18.36047,2.00598 -36.64441,5.24372 -54.98999,7.66712 -36.80316,3.80096 -73.4862,14.1625 -110.72107,9.6654 -13.45434,-0.16363 -24.81604,8.12137 -37.16589,12.14255 z"
         inkscape:connector-curvature="0"
         style="opacity:0.51229499;fill:#ff6600" />
      <path
         id="path3841"
         d="m 189.32214,143.47754 c -3.04553,15.16751 -21.02063,17.51358 -30.8667,26.85458 -12.86853,7.29669 -11.29858,22.77918 -12.22106,35.40131 -2.55884,18.39886 16.58508,27.18121 26.2279,39.72015 8.97559,13.27008 3.02502,31.52979 -2.8219,44.81104 -1.72388,16.44665 -8.47729,35.65368 4.7876,49.22864 -1.47058,0.49993 -12.03052,-25.80109 -0.22437,-32.56678 12.70643,-6.41699 31.63889,4.0672 39.06293,-13.5993 10.04004,-12.60529 12.32355,-28.9469 17.8523,-43.70795 4.88769,-20.49872 6.97644,-42.23071 4.32641,-63.12829 -4.74768,-14.31256 -11.79309,-28.17072 -20.65564,-40.34076 -8.69754,-10.75516 -22.66192,13.53448 -29.61822,3.96771 1.27026,-2.28546 2.94812,-4.30487 4.15075,-6.64035 z"
         inkscape:connector-curvature="0"
         style="fill:#ff0000" />
    </g>
  </g>
</svg>
